<svg width="64" height="64" viewBox="0 0 64 64" fill="none" xmlns="http://www.w3.org/2000/svg">
<path d="M14.333 47.6793C9.74514 41.6554 7.11336 31.6458 10.6127 21.2654C12.1946 28.8624 16.9516 36.1982 21.7077 39.0699C26.4638 41.9417 30.8314 41.1177 33.0561 39.0326C35.2809 36.9476 35.8755 34.2878 35.1581 31.5656C34.4406 28.8434 31.3645 26.1482 27.0812 24.5483C22.7979 22.9484 20.3575 22.4749 17.998 19.5682C15.6386 16.6616 15.7055 12.6025 17.3187 9.5343C18.932 6.46614 22.7085 3.4742 27.4397 4.07835C32.1709 4.68251 37.4325 9.21718 39.4787 17.3759C37.1626 15.1512 35.0933 14.0982 33.423 14.3864C31.7527 14.6745 30.3648 16.4614 30.675 18.2224C30.9853 19.9834 32.6568 21.4732 35.0256 22.553C37.3944 23.6329 45.1541 26.1791 50.3313 31.6378C55.5085 37.0966 55.6866 43.9704 54.1719 48.7299C52.6571 53.4895 48.749 59.9773 37.9012 59.9999C27.0534 60.0226 18.9209 53.7032 14.333 47.6793Z" fill="url(#paint0_linear_213_11)"/>
<defs>
<linearGradient id="paint0_linear_213_11" x1="46.2722" y1="22.3382" x2="14.606" y2="48.0429" gradientUnits="userSpaceOnUse">
<stop stop-color="#0098FF"/>
<stop offset="1" stop-color="#0098FF"/>
</linearGradient>
</defs>
</svg>
